# xmcd CD database file
#
# Track frame offsets:
#	150
#	22125
#	49513
#	70063
#	93375
#
# Disc length: 1519 seconds
#
# Revision: 4
# Processed by: cddbd v1.5.1PL2 Copyright (c) Steve Scherf et al.
# Submitted via: CDex 1.60beta1
#
DISCID=3a05ed05
DTITLE=GEISHA GIRLS - GEISHA "Remix" GIRLS
DYEAR=1994
DGENRE=Comedy
TTITLE0=Kick And Loud (T. Mori's Loud Mix)
TTITLE1=Grandma Is Still Alive
TTITLE2=Kick And Loud
TTITLE3=Grandma Is Still Alive (T. Mori's Flying Phat Mix)
TTITLE4=Kick And Loud (Instrumental)
EXTD=YEAR: 1994
EXTT0=
EXTT1=
EXTT2=
EXTT3=
EXTT4=
PLAYORDER=
